# xmcd
#
# Track frame offsets:
#	150
#	9411
#	23633
#	33915
#	46352
#	57984
#	68138
#	82202
#	94428
#	108980
#	121357
#	133884
#	145227
#	158494
#	170370
#	181450
#	193410
#	215978
#
# Disc length: 2894 seconds
#
# Revision: 1
# Processed by: cddbd v1.5.2PL0 Copyright (c) Steve Scherf et al.
# Submitted via: audiograbber 1.83.01
#
DISCID=090b4c12
DTITLE=Chartbuster Essential Plus Pack Volume 2 - CB CC 2
DYEAR=1900
DGENRE=Country
TTITLE0=Johnny Cash - Five Feet High And Rising
TTITLE1=George Jones - Window Up Above, The
TTITLE2=Marty Robbins - Ruby Ann
TTITLE3=Skeeter Davis - My Last Date (With You)
TTITLE4=Don Gibson - Lonesome Number One
TTITLE5=Roy Orbison - Peel Me A Nanner
TTITLE6=Bobby Bare - Miller's Cave
TTITLE7=Connie Smith - If I Talk To Him
TTITLE8=Bill Anderson - 8 x 10
TTITLE9=Buck Owens - My Heart Skips A Beat
TTITLE10=Ferlin Husky - Timber I'm Falling
TTITLE11=Sonny James - Your're The Only World I Know
TTITLE12=Tammy Wynette - Apartment #9
TTITLE13=Porter Wagoner - I'll Go Down Swinging
TTITLE14=Dave Dudley - Truck Drivin' Son-Of-A-Gun
TTITLE15=Roger Miller - Engine, Engine #9
TTITLE16=Lynn Anderson - If I Kiss You (Will You Go Away)
TTITLE17=no track 18 only 17
EXTD=
EXTT0=
EXTT1=
EXTT2=
EXTT3=
EXTT4=
EXTT5=
EXTT6=
EXTT7=
EXTT8=
EXTT9=
EXTT10=
EXTT11=
EXTT12=
EXTT13=
EXTT14=
EXTT15=
EXTT16=
EXTT17=
PLAYORDER=
